<svg width="662" height="875" viewBox="0 0 662 875" fill="none" xmlns="http://www.w3.org/2000/svg">
<g clip-path="url(#clip0_34_1280)">
<path d="M766.232 81.1959L821.166 170.616C821.166 170.616 788.06 186.641 741.226 222.36C701.436 252.839 651.054 310.362 651.054 310.362L557.727 149.674C557.727 149.674 599.41 100.316 661.347 58.7667C718.616 20.1552 730.532 22.6051 730.532 22.6051L766.232 81.1959Z" fill="white" stroke="#262626" stroke-width="1.22338" stroke-miterlimit="10"/>
<path d="M577.563 128.287L659.844 272.86C659.844 272.86 687.334 242.503 717.691 216.556C770.072 172.177 810.349 153.343 810.349 153.343L730.207 22.4213C730.532 22.6051 657.315 41.256 577.563 128.287Z" fill="#262626"/>
<path d="M989.333 105.922C989.333 105.922 945.487 72.3264 854.631 105.455C763.775 138.583 665.105 227.57 665.105 227.57L573.827 69.3277C573.827 69.3277 698.379 -35.052 782.099 -51.409C849.94 -64.7345 885.455 -46.3624 885.455 -46.3624L989.333 105.922Z" fill="white" stroke="#262626" stroke-width="1.22338" stroke-miterlimit="10"/>
<path d="M968.783 35.7358L859.314 267.702L553.206 229.275" stroke="#FF6B00" stroke-width="1.22338" stroke-miterlimit="10"/>
<path d="M552.187 356.12L719.663 309.699L742.722 392.887L575.245 439.309L552.187 356.12Z" fill="white" stroke="#FF6B00" stroke-width="1.22338" stroke-miterlimit="10"/>
<path d="M467.371 698.776L448.282 704.067C443.293 701.889 438.12 700.036 433.06 697.603C432.41 697.235 431.83 697.122 431.18 696.754L425.116 674.876L458.204 665.704L467.371 698.776Z" fill="white" stroke="#FF6B00" stroke-width="1.22338" stroke-miterlimit="10"/>
<path d="M509.626 722.677L542.714 713.505L533.547 680.433L500.459 689.605L491.292 656.533L524.38 647.362L515.213 614.29L482.125 623.461L449.036 632.633L439.87 599.561L472.958 590.389L463.791 557.317L430.703 566.489L439.87 599.561L406.781 608.732L373.693 617.904L364.526 584.832L331.438 594.003L298.35 603.175L307.517 636.247L316.684 669.318L283.596 678.49L274.429 645.418L259.667 649.51L244.224 426.69C244.224 426.69 266.145 394.041 325.044 391.96C413.264 388.875 456.564 436.319 529.573 452.517C575.456 462.81 585.635 442.182 585.635 442.182L615.406 633.636C615.406 633.636 692.199 617.008 736.047 668.409C762.067 699.001 722.956 730.936 682.486 742.153C640.235 753.864 590.264 746.622 510.26 724.966L509.626 722.677Z" fill="white" stroke="#FF6B00" stroke-width="1.22338" stroke-miterlimit="10"/>
<path d="M509.627 722.677L505.555 723.805C494.261 720.635 482.826 716.956 471.25 712.768L467.372 698.776L500.46 689.605L509.627 722.677Z" fill="white" stroke="#FF6B00" stroke-width="1.22338" stroke-miterlimit="10"/>
<path d="M425.116 674.876L392.792 683.835C392.537 683.906 392.212 683.722 391.958 683.793L382.861 650.975L415.949 641.804L425.116 674.876Z" fill="white" stroke="#FF6B00" stroke-width="1.22338" stroke-miterlimit="10"/>
<path d="M355.133 679.481C342.253 679.49 330.956 681.251 320.705 683.819L316.685 669.318L349.773 660.147L355.133 679.481Z" fill="white" stroke="#FF6B00" stroke-width="1.22338" stroke-miterlimit="10"/>
<path d="M267.312 718.616L264.767 719.322L262.218 684.416L283.598 678.49L288.957 697.824C278.052 704.956 270.695 713.022 267.312 718.616Z" fill="white" stroke="#FF6B00" stroke-width="1.22338" stroke-miterlimit="10"/>
<path d="M340.606 627.075L373.694 617.903L382.861 650.975L349.773 660.147L340.606 627.075Z" fill="white" stroke="#FF6B00" stroke-width="1.22338" stroke-miterlimit="10"/>
<path d="M556.941 455.34L587.406 686.872C587.406 686.872 642.866 647.666 717.038 659.158L675.723 436.935C675.723 436.935 640.496 409.717 585.96 442.366C585.96 442.366 574.711 456.168 556.941 455.34Z" fill="#262626"/>
<path d="M585.96 442.365L578.929 387.334C578.929 387.334 661.078 372.234 701.378 422.701L743.39 680.07C743.39 680.07 739.061 663.463 689.406 648.463C659.512 639.491 618.49 651.683 618.49 651.683L585.96 442.365Z" fill="white" stroke="#FF6B00" stroke-width="1.22338" stroke-miterlimit="10"/>
<path d="M383.668 396.804C383.668 396.804 351.657 380.2 311.13 394.173C270.602 408.146 172.794 498.264 172.794 498.264L169.721 673.071C169.721 673.071 289.096 571.77 328.418 563.336C365.888 555.141 397.828 571.491 397.828 571.491L383.668 396.804Z" fill="#262626"/>
<path d="M352.453 353.407C352.453 353.407 322.233 344.251 279.915 350.776C241.81 356.681 141.579 454.867 141.579 454.867L138.506 629.674C138.506 629.674 259.08 532.697 297.203 519.939C335.327 507.18 365.911 520.618 365.911 520.618L352.453 353.407Z" fill="white" stroke="#FF6B00" stroke-width="1.22338" stroke-miterlimit="10"/>
<path d="M251.985 363.722L252.554 441.913L176.382 503.296L176.819 421.814L232.439 376.263L251.985 363.722Z" fill="#262626"/>
<path d="M339.594 698.581L425.114 674.876L440.134 729.063L354.614 752.768L339.594 698.581Z" fill="white" stroke="#FF6B00" stroke-width="1.22338" stroke-miterlimit="10"/>
<path d="M418.227 706.671L417.851 705.314L405.384 702.778L405.986 704.949L415.485 706.664L415.38 706.547L415.474 706.886L415.504 706.731L408.243 713.092L408.845 715.263L418.227 706.671ZM393.571 700.499L404.934 719.745L406.766 719.237L395.403 699.991L393.571 700.499ZM385.23 722.393L386.178 720.742L379.31 716.855L393.237 712.995L392.72 711.129L378.793 714.989L382.685 708.138L381.017 707.194L375.523 716.9L385.23 722.393ZM360.257 722.739L372.723 725.275L372.122 723.104L362.622 721.389L362.728 721.506L362.634 721.167L362.604 721.321L369.865 714.961L369.263 712.79L359.88 721.382L360.257 722.739Z" fill="black"/>
<path d="M232.322 359.036L232.637 437.297L156.464 498.681L156.926 423.218L232.322 359.036Z" fill="white" stroke="#262626" stroke-width="1.22338" stroke-miterlimit="10"/>
<path d="M341.678 294.756L334.758 221.339L411.001 160.21L417.075 230.574L341.678 294.756Z" fill="white" stroke="#262626" stroke-width="1.22338" stroke-miterlimit="10"/>
<path d="M375.928 240.335C371.149 241.66 366.201 238.861 364.877 234.084C363.553 229.307 366.354 224.361 371.133 223.036C375.913 221.711 380.861 224.51 382.185 229.287C383.509 234.064 380.708 239.011 375.928 240.335Z" fill="white" stroke="#262626" stroke-width="1.22338" stroke-miterlimit="10"/>
<path d="M196.279 451.484L196.275 479.154L169.399 500.849L169.685 474.197L196.279 451.484Z" fill="white" stroke="#262626" stroke-width="1.22338" stroke-miterlimit="10"/>
<path d="M293.758 492.677L293.982 536.994L252.301 563.614L252.5 520.824L293.758 492.677Z" fill="white" stroke="#262626" stroke-width="1.22338" stroke-miterlimit="10"/>
<path d="M433.7 522.922C415.285 528.026 396.221 517.243 391.12 498.838C386.018 480.432 396.81 461.374 415.225 456.269C433.639 451.165 452.703 461.948 457.805 480.354C462.907 498.759 452.114 517.818 433.7 522.922Z" fill="#262626"/>
<path d="M424.931 508.094C406.517 513.198 387.453 502.415 382.351 484.01C377.249 465.604 388.042 446.545 406.456 441.441C424.871 436.337 443.935 447.12 449.036 465.526C454.138 483.931 443.346 502.99 424.931 508.094Z" fill="white" stroke="#262626" stroke-width="1.22338" stroke-miterlimit="10"/>
<path d="M415.692 474.768L548.546 240.155" stroke="#FF6B00" stroke-width="1.22338" stroke-miterlimit="10"/>
<path d="M562.444 262.601C544.029 267.705 524.966 256.922 519.864 238.517C514.762 220.111 525.554 201.053 543.969 195.948C562.384 190.844 581.447 201.627 586.549 220.033C591.651 238.438 580.859 257.497 562.444 262.601Z" fill="white" stroke="#FF6B00" stroke-width="1.22338" stroke-miterlimit="10"/>
<path d="M540.475 197.191L546.097 183.853L578.529 224.722L553.955 271.529L547.923 263.613" stroke="#FF6B00" stroke-width="1.22338" stroke-miterlimit="10"/>
<path d="M711.362 344.809L710.882 343.074L694.945 339.833L695.714 342.608L707.857 344.8L707.722 344.651L707.843 345.084L707.881 344.887L698.599 353.017L699.369 355.793L711.362 344.809ZM682.644 361.176L683.305 363.562L697.183 359.715L696.522 357.329L682.644 361.176ZM668.838 365.003L669.499 367.388L683.378 363.541L682.717 361.156L668.838 365.003ZM655.032 368.83L655.694 371.215L669.572 367.368L668.911 364.983L655.032 368.83ZM638.427 348.4L652.952 373.002L655.294 372.353L640.769 347.75L638.427 348.4ZM630.344 375.673L631.005 378.058L644.883 374.211L644.222 371.826L630.344 375.673ZM611.165 372.582L627.102 375.824L626.332 373.049L614.189 370.857L614.324 371.006L614.204 370.573L614.165 370.77L623.447 362.64L622.678 359.864L610.684 370.848L611.165 372.582Z" fill="black"/>
<path d="M418.121 479.574C414.747 480.509 411.255 478.533 410.32 475.161C409.385 471.789 411.363 468.298 414.736 467.363C418.11 466.427 421.602 468.403 422.537 471.775C423.472 475.147 421.495 478.639 418.121 479.574Z" fill="white" stroke="#FF6B00" stroke-width="1.22338" stroke-miterlimit="10"/>
<path d="M661.569 125.821L695.592 113.103L691.504 75.6103L726.588 61.7762L730.818 99.778L767.316 86.1L771.644 125.444L734.934 138.359L699.243 150.992L703.218 189.064L668.841 200.51L672.492 238.399L639.177 248.729L635.738 211.603L632.115 174.803L665.078 163.201L661.569 125.821Z" fill="#666666"/>
<path d="M657.946 89.0211L654.069 52.2914L687.74 38.3013L691.504 75.6104L657.946 89.0211Z" fill="#262626"/>
<path d="M628.563 138.257L625.082 101.966L657.946 89.0212L661.569 125.822L628.563 138.257Z" fill="#262626"/>
<path d="M593.674 114.233L590.404 78.705L621.601 65.6748L625.082 101.966L593.674 114.233Z" fill="#262626"/>
<path d="M597.015 150.016L628.564 138.257L632.116 174.803L600.172 186.123L569.5 197.09L566.23 161.562L563.03 126.288L593.675 114.233L597.015 150.016Z" fill="#FF6B00"/>
<path d="M654.07 52.2914L621.601 65.6744L618.261 29.8917L614.991 -5.63664L646.852 -20.221L680.171 -35.4832L684.048 1.24661L650.518 15.7455L654.07 52.2914Z" fill="#262626"/>
<path d="M556.913 56.7583L587.205 43.4309L590.405 78.7048L559.972 91.5234L556.913 56.7583Z" fill="#262626"/>
<path d="M533.657 137.991L530.67 103.48L559.971 91.5232L563.029 126.288L533.657 137.991Z" fill="#262626"/>
<path d="M373.529 231.686L936.487 397.803" stroke="#FF6B00" stroke-width="1.22338" stroke-miterlimit="10"/>
</g>
<defs>
<clipPath id="clip0_34_1280">
<rect width="1003.13" height="769.271" fill="white" transform="matrix(-0.963665 0.267112 0.267112 0.963665 966.682 -135)"/>
</clipPath>
</defs>
</svg>
